<svg width="138" height="46" viewBox="0 0 138 46" fill="none" xmlns="http://www.w3.org/2000/svg">
<rect width="138" height="46" rx="15" fill="#274437"/>
<g clip-path="url(#clip0_601_1816)">
<rect width="120" height="34.7664" transform="translate(11 7)" fill="#274437"/>
<path fill-rule="evenodd" clip-rule="evenodd" d="M26.4896 18.2222C26.5159 18.2154 26.5429 18.2098 26.5701 18.2045C26.6662 18.1846 26.7991 18.1574 26.9177 18.0825L27.0184 18.1187L27.1409 17.8145L26.8269 17.688L26.8998 17.362C27.0739 17.4007 27.1701 17.5613 27.1622 17.6939C27.1729 17.512 27.4443 15.6797 27.4804 15.5303L27.6318 15.0842L27.1608 15.0851C26.9186 15.0853 24.6301 15.1557 17.4873 17.4183C17.5266 17.2064 17.5796 16.998 17.634 16.7827C17.6959 16.5385 17.7599 16.2859 17.803 16.0251C17.874 15.5953 17.9687 15.1571 18.0607 14.734C18.1459 14.3395 18.2343 13.9319 18.3049 13.5251C18.3052 13.5225 18.3058 13.5194 18.306 13.5172C23.5597 11.6524 28.1026 11.1054 29.8555 10.8946C30.2805 10.8435 30.5236 10.8141 30.6736 10.7838L30.7897 10.8385L30.9565 10.6389C30.9568 10.6386 30.9568 10.6383 30.9571 10.638L30.6983 10.4219L30.7028 10.4106L31.0328 10.4572C31.037 10.4261 31.0549 10.3333 31.0804 10.2015C31.4954 8.03279 31.4334 7.85392 31.266 7.68149C31.1884 7.60186 31.0787 7.56205 30.9694 7.57242C30.788 7.58476 30.5959 7.59485 30.4042 7.60466C30.0349 7.62401 29.653 7.64392 29.3444 7.68233C29.2883 7.68962 23.0867 8.63251 18.2659 10.144C18.1527 9.60317 18.022 9.46831 17.8238 9.42457C17.8056 9.42036 17.7868 9.41812 17.7672 9.41672C17.2244 9.01663 15.9627 8.8484 15.7546 8.86747C15.4123 8.89579 15.3705 9.15457 15.3652 9.20616L15.331 9.57317C15.2901 10.0178 15.2239 10.728 15.158 11.3468C14.4215 11.6561 13.7264 11.96 13.3532 12.1473C13.2512 12.1983 13.1368 12.242 13.0154 12.2883C12.6105 12.4431 12.1067 12.6354 11.9539 13.2211C11.837 13.6692 13.1267 15.2409 13.2887 15.3736C13.388 15.4549 13.4802 15.4801 13.5562 15.4801C13.6215 15.4801 13.6748 15.4613 13.711 15.4439C13.9939 15.3051 14.2759 15.1723 14.5577 15.0419C14.5159 15.2931 14.4739 15.5482 14.4315 15.8017C14.2213 17.0673 13.9597 18.6422 13.9005 18.8222C13.8638 18.9166 13.6858 19.0114 13.5287 19.0952C13.4603 19.1317 13.393 19.1679 13.3308 19.2057C13.1379 19.3226 12.673 19.6776 12.2945 19.9972C11.5168 20.6538 11.4128 20.8683 11.4733 21.1002C11.4876 21.1546 11.5131 21.2031 11.5471 21.2437C11.6415 21.5031 11.9258 21.9957 12.6613 23.0799L13.1211 23.8669C12.8828 25.3523 12.4622 27.858 12.1016 30.0082C11.8137 31.7219 11.5308 33.408 11.3239 34.6675C11.2201 35.2986 11.1355 35.8226 11.0786 36.1899C10.967 36.913 10.9524 37.0058 11.1806 37.1224L11.5751 37.0591L11.3345 36.8216L11.3348 36.821C11.3348 36.821 11.3348 36.8222 11.3351 36.8219L13.3745 37.594C13.3715 37.6058 13.3689 37.6167 13.3664 37.6254L13.6916 37.714L14.0174 37.8026C14.1815 37.1998 15.1636 30.8353 16.2004 24.0478C16.3827 22.8539 16.5147 21.9912 16.5383 21.8496C16.5492 21.7829 16.5543 21.7139 16.5587 21.6455C16.5629 21.5861 16.5694 21.4868 16.5941 21.4577C19.7432 19.9002 22.9717 18.8306 26.1899 18.278C26.348 18.251 26.4352 18.2359 26.4896 18.2222Z" fill="white"/>
<path fill-rule="evenodd" clip-rule="evenodd" d="M36.9056 23.1441C36.332 22.8763 34.4044 22.6873 34.08 22.867L33.9378 22.9551L33.9087 23.111C33.8459 23.4443 33.7441 28.781 33.7242 29.8475C33.6042 36.33 33.6322 36.364 33.7371 36.4907C33.8005 36.5667 33.8005 36.5667 34.5465 36.907C34.994 37.1112 35.7956 37.4773 36.0255 37.6105L36.1026 37.7826L36.3712 37.7241C36.6272 37.668 36.6412 37.4947 36.6779 37.031C36.6981 36.7831 36.7228 36.429 36.7506 36.0031C36.8153 35.0154 36.8891 33.7587 36.9395 32.8786C37.0609 30.7666 37.1941 28.2696 37.1919 28.0635C37.1874 27.6979 37.2177 26.6128 37.2448 25.6556C37.2959 23.8453 37.297 23.6406 37.2799 23.5523C37.2471 23.3821 37.1212 23.2444 36.9056 23.1441Z" fill="white"/>
<path fill-rule="evenodd" clip-rule="evenodd" d="M44.0274 26.3919C44.7135 26.2643 46.8382 25.9136 47.2282 25.8737C47.5525 25.8409 47.6706 25.8833 47.7017 25.899C47.7023 25.9091 47.7014 25.927 47.6964 25.9542C47.6675 26.1 47.4979 26.2789 47.3482 26.4365C47.3125 26.474 47.2775 26.5108 47.2444 26.5472C46.8903 26.9333 46.488 27.325 46.0988 27.704L45.9513 27.847C45.3982 28.3873 44.8054 28.9116 44.2324 29.4188C44.0086 29.617 43.781 29.8186 43.5536 30.0227C43.7151 28.8628 43.9444 27.0569 44.0274 26.3919ZM51.5613 36.5565L51.5397 36.5327C51.1576 36.1489 47.1121 32.8228 45.8055 31.8028C45.9642 31.6682 46.1953 31.4711 46.5362 31.1801C46.8911 30.877 47.3325 30.4996 47.3888 30.4567C47.416 30.4363 50.1365 28.3223 50.9072 26.6319C51.2501 25.8802 51.2353 25.1383 50.8643 24.4873C50.3611 23.6038 49.2334 22.9671 47.9221 22.8258C47.1729 22.7451 46.2788 22.7966 45.4049 22.971C45.2877 22.9946 44.9622 23.0554 44.5416 23.1342C41.3947 23.7236 41.2096 23.7754 41.1152 23.8287C40.8965 23.9521 40.8965 23.9521 40.8567 26.1264C40.8443 26.7897 40.832 27.4761 40.8096 27.7021C40.7504 28.3082 40.4633 30.2582 40.1854 32.1437C39.5739 36.2947 39.5739 36.2947 39.6889 36.4508L39.9606 36.2509L41.8996 37.0102C41.8837 37.2407 41.9089 37.2751 41.9566 37.3394L42.2109 37.4753L42.228 37.1386L42.2327 37.0461C42.2383 36.9889 42.2479 36.9062 42.2602 36.8044C42.4461 36.8223 42.5692 36.9886 42.5636 37.1333C42.5706 36.9541 42.8989 34.583 43.0503 33.5815C43.6172 33.9387 44.7202 34.7518 45.5745 35.3815C48.2582 37.3598 48.8041 37.701 49.1142 37.6691C49.3001 37.7263 49.5665 37.7501 49.9329 37.7501C50.271 37.7501 50.6941 37.7296 51.2179 37.6974C51.4368 37.6839 51.6631 37.6702 51.7223 37.6733L52.456 37.7153L51.9317 37.0301C51.8131 36.8745 51.69 36.7133 51.5613 36.5565Z" fill="white"/>
<path fill-rule="evenodd" clip-rule="evenodd" d="M27.1464 29.439C26.2304 29.4066 24.0236 29.3089 23.1043 29.2605C23.503 28.1647 24.7492 25.8702 25.5634 25.7888C26.007 25.7471 26.7034 27.3797 27.1464 29.439ZM31.3086 37.1731C31.0792 34.7064 30.3822 27.1997 28.8643 24.6225C28.0974 23.3213 26.7432 22.7731 25.7429 22.8088C22.1703 22.933 20.4483 27.5429 19.8825 29.0581C19.8528 29.1371 19.8231 29.2173 19.7978 29.2826C19.6268 29.2826 19.3602 29.2764 19.179 29.2716C18.9233 29.2655 18.7027 29.2596 18.5908 29.2641C18.4705 29.2686 18.3702 29.2543 18.2734 29.2408C17.8658 29.1839 17.5697 29.2616 17.4584 29.8066C17.4435 29.8318 17.4306 29.8604 17.42 29.8921C17.3252 30.1745 17.4682 32.1306 17.8442 32.383C17.861 32.3942 17.8781 32.4038 17.896 32.4121C18.0996 32.5702 18.3985 32.5506 18.6547 32.5276C18.5333 32.9981 18.3702 33.7161 18.2479 34.3111C17.8046 36.466 17.9359 36.5533 18.1346 36.6856C18.1489 36.6949 18.1641 36.7032 18.1801 36.7109C18.445 36.9769 19.1 37.1496 20.2475 37.3789C20.3978 37.4093 20.5683 37.4434 20.6078 37.4558L21.426 37.7143L21.0231 37.0038C20.981 36.516 21.6718 33.5381 21.7983 33.1899C21.835 33.0892 21.8659 32.9751 21.8981 32.8548C21.9385 32.7062 21.9864 32.5288 22.0428 32.4062C22.7373 32.2708 26.5425 32.2792 27.6379 32.3075C28.149 36.8766 28.4502 36.9845 28.693 37.0717C28.7042 37.0756 28.7151 37.0792 28.7263 37.082C28.9405 37.2598 29.3802 37.4684 30.2967 37.8537C30.519 37.947 30.796 38.0631 30.853 38.0978L31.4479 38.4696L31.3666 37.7726C31.3545 37.6691 31.3352 37.4625 31.3086 37.1731Z" fill="white"/>
<mask id="mask0_601_1816" style="mask-type:alpha" maskUnits="userSpaceOnUse" x="51" y="7" width="21" height="35">
<path fill-rule="evenodd" clip-rule="evenodd" d="M51.5015 7.28027H71.3259V41.3199H51.5015V7.28027Z" fill="white"/>
</mask>
<g mask="url(#mask0_601_1816)">
<path fill-rule="evenodd" clip-rule="evenodd" d="M71.2126 8.79325C70.8307 8.26727 68.9174 7.30811 68.6359 7.28344C68.2154 7.24643 68.0601 7.54306 67.9765 7.70203C67.9507 7.75166 67.926 7.79848 67.8952 7.84418C67.7629 8.04101 67.3939 8.52493 67.0687 8.95166C66.8247 9.27185 66.6142 9.54802 66.5233 9.67587C66.003 10.4121 65.4159 11.1299 64.8484 11.8241C64.0684 12.7776 63.2615 13.764 62.5919 14.8367C62.0233 15.7473 60.5859 17.9096 59.9769 18.7829C59.8802 18.5525 59.7994 18.2743 59.7248 18.017C59.6704 17.8297 59.6188 17.653 59.5619 17.4921C59.3267 16.829 59.1293 16.1438 58.9384 15.481C58.8341 15.119 58.7298 14.7565 58.6185 14.3937C58.5554 14.1879 58.3025 13.6431 57.924 12.8354C57.6944 12.3447 57.3798 11.673 57.3461 11.5561C57.273 11.2586 56.267 9.8968 55.6075 9.95203C55.5035 9.96073 55.1615 10.0272 55.1242 10.5153C54.3546 18.0046 52.3849 28.0412 51.7375 31.3395C51.5082 32.5084 51.5015 32.5479 51.5015 32.6107C51.502 32.865 51.714 33.1588 53.0362 34.501C53.2241 34.6916 53.4372 34.9078 53.4731 34.9538L53.8103 35.4245L54.0534 34.8986C54.3366 34.2857 56.1871 26.9629 57.1297 19.903C57.4154 20.406 57.7664 20.9923 58.0827 21.5062C59.3463 23.5591 59.4105 23.5524 59.6514 23.5238C59.9539 23.4885 61.4606 22.1511 61.6583 21.8449C62.8788 19.9552 64.0782 18.3234 65.3477 16.596C65.8945 15.8525 66.4527 15.0929 67.0174 14.3048C66.67 15.7978 66.4196 17.1021 66.2186 18.6601C65.4613 24.5354 64.9479 29.8131 64.6504 33.2057C64.4738 35.2221 64.3577 36.7451 64.291 37.6681C64.1589 39.509 64.1589 39.509 64.3431 39.6259L64.7068 39.8564L64.7295 39.7883C65.3239 40.0984 66.6097 40.875 66.9038 41.1114L66.9481 41.32L67.2431 41.2998C67.5543 41.2787 67.5688 41.0802 67.6176 40.4219C67.6446 40.0535 67.6793 39.5144 67.7236 38.8319C68.0679 33.4916 68.9831 19.3056 71.3152 9.204C71.3365 9.11063 71.3365 8.96344 71.2126 8.79325Z" fill="white"/>
</g>
<path fill-rule="evenodd" clip-rule="evenodd" d="M35.2725 16.8502C35.1909 16.858 35.1161 16.8656 35.0516 16.8703C34.4614 16.9144 33.775 17.089 33.7033 18.0555C33.6735 18.4553 33.7108 19.6427 33.7352 20.003L34.0717 19.9803L36.2381 20.1336L36.4565 20.3907C37.1269 19.821 37.4563 18.637 37.4353 17.7619C37.4286 17.4992 37.3282 17.2746 37.1446 17.112C36.6915 16.7108 35.8714 16.7913 35.2725 16.8502Z" fill="white"/>
<path fill-rule="evenodd" clip-rule="evenodd" d="M117.166 15.8416C117.183 16.1537 117.203 16.5473 117.21 16.7898L116.62 16.9266L117.373 17.3534C117.591 17.4773 118.158 17.7333 118.539 17.7924C118.657 17.8109 119.062 17.7986 119.194 17.793C119.686 17.7717 119.948 17.7481 120.03 17.4838C120.046 17.431 120.051 17.3699 120.039 17.3096C120.04 17.1602 120.003 16.9272 119.929 16.503C119.906 16.3732 119.885 16.2608 119.878 16.2008C119.857 16.0292 119.862 15.8514 119.868 15.6633C119.873 15.4813 119.879 15.2926 119.862 15.0854C119.851 14.9304 119.849 14.7378 119.848 14.5516C119.844 13.9325 119.832 13.6011 119.618 13.422C119.48 13.3084 119.265 13.2271 117.723 13.2327C117.69 13.233 117.663 13.233 117.646 13.233L117.358 13.1851L117.287 13.4946" fill="#40E29C"/>
<path fill-rule="evenodd" clip-rule="evenodd" d="M127.558 17.3509C127.511 17.1878 127.389 16.9946 126.367 16.276L126.324 16.246L126.079 16.0088L125.847 16.2892C125.811 16.3315 125.493 16.7431 125.374 16.8987C125.256 17.0153 125.097 17.3439 124.6 18.3707C124.451 18.6774 124.277 19.0365 124.164 19.2597L123.656 19.0817L124.012 19.8168C124.14 20.0812 124.734 20.7973 124.982 21.0322C125.025 21.0735 125.067 21.1105 125.108 21.143C125.541 21.4929 125.787 21.3594 125.856 21.3056C125.925 21.2515 125.978 21.1665 125.989 21.0648C126.058 20.9249 126.14 20.6947 126.277 20.2977C126.323 20.1628 126.363 20.0465 126.387 19.9859C126.457 19.8093 126.596 19.5965 126.743 19.3708" fill="#40E29C"/>
<mask id="mask1_601_1816" style="mask-type:alpha" maskUnits="userSpaceOnUse" x="126" y="23" width="5" height="5">
<path fill-rule="evenodd" clip-rule="evenodd" d="M126.267 23.7144H130.829V27.1622H126.267V23.7144Z" fill="white"/>
</mask>
<g mask="url(#mask1_601_1816)">
<path fill-rule="evenodd" clip-rule="evenodd" d="M129.759 26.5149L129.859 27.1617L130.334 26.262C130.466 26.0138 130.745 25.385 130.826 24.986C130.828 24.9753 130.885 23.8763 130.448 23.7319C130.364 23.7044 130.262 23.7072 130.17 23.7549C130.016 23.7882 129.788 23.8774 129.401 24.0322C129.272 24.0832 129.161 24.1275 129.102 24.148C128.773 24.2609 128.309 24.3608 127.781 24.4707C126.705 24.6941 126.53 24.9372 126.464 25.0286C126.344 25.1971 126.288 25.5148 126.339 26.7106C126.341 26.7442 126.342 26.7717 126.342 26.7913L126.267 27.1471L126.668 27.1617C126.719 27.1634 127.13 27.1603 127.332 27.1583" fill="#40E29C"/>
</g>
<path fill-rule="evenodd" clip-rule="evenodd" d="M91.0528 33.5812L90.9917 33.658C90.8084 33.8879 90.6418 34.4691 90.7994 34.8575C90.8257 34.9228 90.8611 34.9811 90.9031 35.0318L90.5067 35.1216C90.4971 35.1056 90.4865 35.0893 90.4747 35.0731C90.4725 35.0433 90.4669 35.0178 90.4613 34.999C90.4114 34.8303 90.2824 34.7711 90.0687 34.6732C89.988 34.6365 89.9134 34.6318 89.8545 34.6357L89.6981 34.4218C89.6414 34.3441 89.5674 34.2653 89.5024 34.196L89.4228 34.1097C89.2977 33.9726 89.0656 33.7183 88.996 33.6137C88.7964 33.3146 88.6388 32.9803 88.4717 32.6271C88.3461 32.3607 88.216 32.0857 88.0652 31.823C87.8482 31.4447 87.7186 31.1433 87.5689 30.794C87.4932 30.6171 87.4136 30.4312 87.3166 30.222C86.9201 29.3658 86.5231 28.1105 86.8826 26.9949C87.0373 26.5155 87.3379 26.1698 87.7523 25.9951C88.1768 25.8168 88.6781 25.8423 89.1284 26.066C89.9156 26.4583 90.1904 27.141 90.5375 28.0054C90.6228 28.2182 90.7114 28.4386 90.8123 28.6648C90.8908 28.842 91.0231 29.1387 91.3102 29.1482C91.5727 29.1569 91.6971 28.9323 91.793 28.7512C91.8356 28.6707 91.8839 28.5796 91.945 28.4921C91.9938 28.4217 92.0398 28.3536 92.0846 28.2877C92.319 27.9429 92.4884 27.6936 92.8029 27.4693C93.2431 27.1561 94.0248 26.9293 94.5704 27.0925C94.8362 27.1721 95.0128 27.3319 95.1104 27.5817C95.4424 28.433 93.2532 31.0155 92.296 32.0862C92.2114 32.1813 92.1525 32.2477 92.1256 32.2797C92.005 32.4266 91.8833 32.5724 91.7611 32.7188C91.585 32.9299 91.4089 33.141 91.2351 33.3538C91.174 33.4292 91.1134 33.5052 91.0528 33.5812ZM91.6792 25.0702L91.5256 25.0578C91.5093 25.0317 91.493 25.0054 91.4762 24.9788C91.4964 24.9437 91.5194 24.9137 91.5435 24.8949L91.6792 25.0702ZM96.1052 24.5338C95.8523 24.4034 95.6364 24.3073 95.425 24.2318C95.148 24.1334 94.9747 24.1626 94.8222 24.1887C94.7874 24.1946 94.7543 24.2002 94.719 24.2044C94.6691 24.1573 94.5906 24.0903 94.4723 24.0659C94.2822 24.026 94.0635 24.0342 93.87 24.0415C93.8162 24.0432 93.7652 24.0454 93.7175 24.046C93.2493 24.0518 92.8915 24.2161 92.5461 24.3751C92.4822 24.4046 92.4138 24.434 92.3437 24.4643C92.1486 24.5489 91.9338 24.6417 91.7375 24.7615C91.6983 24.7009 91.6562 24.6412 91.6147 24.5902C91.4414 24.3774 91.2682 24.2262 91.1 24.0799C90.9945 23.9882 90.8852 23.8932 90.7725 23.7799L90.7416 23.7485L90.7035 23.7263C90.5958 23.6638 90.4876 23.5976 90.3788 23.5306C89.8299 23.1936 89.2618 22.8451 88.6259 22.8359C88.5059 22.8342 88.3871 22.8305 88.2699 22.8272C87.5375 22.8047 86.7811 22.7817 86.0128 23.2371C85.0399 23.8138 84.3368 24.6706 84.0323 25.6497C83.7328 26.6128 83.5517 28.1686 83.8613 29.3097C84.2897 30.8893 85.0164 32.5937 86.0213 34.3744L86.0925 34.5003C86.5327 35.2822 87.0323 36.1685 87.6474 36.8307L87.6945 36.8818C87.8437 37.0449 88.013 37.23 88.3069 37.3037C88.497 37.3519 88.6371 37.3275 88.7302 37.3118C88.751 37.3082 88.7796 37.3032 88.7818 37.3023C88.7818 37.3023 88.788 37.3043 88.8009 37.3124C88.8928 37.3682 88.9843 37.4921 89.0807 37.6236C89.2478 37.8507 89.4564 38.1328 89.8097 38.2312L89.9964 38.2833L90.1355 38.1476C90.1809 38.1036 90.2465 38.0223 90.2678 37.9068C90.3278 37.8754 90.3811 37.8314 90.4243 37.7714C90.4456 37.7405 90.4742 37.6906 90.4904 37.6253C90.6317 37.6001 90.7977 37.5454 90.8925 37.3688C90.9446 37.2709 90.9542 37.1691 90.9424 37.0721C90.9525 37.0581 90.962 37.0435 90.9704 37.0278C91.0663 36.8548 91.0405 36.5963 90.9727 36.3981C91.0674 36.09 90.8807 35.8006 90.782 35.6478C90.7674 35.6248 90.7489 35.596 90.7332 35.5702L90.9564 35.1726C90.9727 35.2295 90.9985 35.2724 91.0175 35.2993C91.137 35.4631 91.3646 35.5203 91.5996 35.4446C91.788 35.3843 91.8979 35.2138 91.9949 35.0635C92.0241 35.0189 92.0678 34.9517 92.079 34.939C92.1749 34.8673 92.31 34.8174 92.453 34.7644C92.4788 34.7551 92.5041 34.7453 92.5287 34.7361C92.4693 34.8014 92.4093 34.8639 92.3471 34.9242C92.2876 34.9814 92.2108 35.047 92.1261 35.1182C91.802 35.3941 91.3977 35.737 91.2928 36.1435L91.0484 37.0898L91.8244 36.4957C92.7407 35.7942 93.7327 34.8423 94.857 33.5854C94.9181 33.5167 94.977 33.4519 95.0336 33.3891C95.3061 33.0894 95.5416 32.8306 95.7783 32.4532C95.8114 32.4011 95.8439 32.3473 95.8775 32.292C95.9925 32.1047 96.1113 31.911 96.233 31.7632C96.2768 31.7103 96.316 31.6797 96.371 31.6368C96.4226 31.5973 96.4865 31.5476 96.5549 31.4767C96.971 31.0463 97.5345 30.0406 97.737 29.3669C98.3656 27.2689 97.7252 25.3721 96.1052 24.5338Z" fill="#40E29C"/>
<path fill-rule="evenodd" clip-rule="evenodd" d="M118.999 27.2303C118.877 27.7518 118.491 28.1281 118.092 28.457C117.182 29.2067 116.363 29.7501 115.604 30.1061C115.756 29.182 116.199 28.162 116.904 27.1238C117.178 26.7212 117.863 26.2322 118.41 26.1744C118.445 26.1708 118.48 26.1688 118.513 26.1688C118.685 26.1688 118.822 26.2199 118.931 26.3239C119.068 26.4551 119.077 26.8984 118.999 27.2303ZM125.14 33.9105C125.036 33.6983 124.807 33.617 124.591 33.712C120.702 35.1812 118.628 34.7774 117.573 34.1794C116.8 33.7412 116.469 33.1473 116.344 32.8485C116.422 32.8148 116.513 32.7761 116.599 32.74C117.864 32.2078 120.829 30.961 121.785 28.0872C122.221 26.7803 121.913 25.3496 120.982 24.3537C120.102 23.4133 118.867 23.0637 117.594 23.3943C117.165 23.5059 115.672 23.9875 114.452 25.5069C113.259 26.9923 112.734 28.9378 112.891 31.2921C112.781 31.3406 112.644 31.4079 112.464 31.4985C112.288 31.5862 111.995 31.7334 111.913 31.7505L111.74 31.7844L111.669 31.9451C111.566 32.1789 111.539 33.8152 111.752 34.277C111.833 34.4542 111.954 34.522 112.04 34.5478C112.222 34.6022 112.41 34.5259 112.976 34.2773C113.149 34.201 113.411 34.0863 113.573 34.0297C113.612 34.0933 113.655 34.1696 113.691 34.2332C113.791 34.4096 113.904 34.6098 114.042 34.7856C115.775 37.0042 117.866 37.6577 119.729 37.6574C121.946 37.6574 123.84 36.7311 124.42 36.4157L124.444 36.4025C124.902 36.1743 125.347 34.3314 125.14 33.9105Z" fill="white"/>
<path fill-rule="evenodd" clip-rule="evenodd" d="M112.814 25.3888C112.994 25.097 112.78 24.7529 112.237 23.9345C112.041 23.6396 111.747 23.1969 111.708 23.053L111.724 22.2573L111.137 22.8212C108.28 25.5635 104.828 30.5499 103.517 32.5019C103.507 32.3805 103.496 32.2518 103.484 32.1172C102.862 24.9237 102.815 24.8368 102.75 24.717L102.666 24.5634L102.511 24.5452C102.404 24.5141 101.922 24.338 101.532 24.1955C100.273 23.7352 100.071 23.6614 99.9391 23.7251C99.8348 23.7537 99.7417 23.8168 99.6699 23.9098C99.2331 24.4728 99.6301 26.4444 99.6346 26.4635C99.814 27.1877 100.205 32.0062 100.353 33.8199L100.377 34.1177C100.457 35.0959 100.599 36.0422 101.445 36.8617C101.879 37.2817 102.456 37.5203 103.018 37.5203C103.083 37.5203 103.147 37.517 103.212 37.5105C103.733 37.4589 104.179 37.1987 104.47 36.7779C106.956 33.1751 110.34 28.6846 111.965 26.5266C112.62 25.6574 112.777 25.448 112.814 25.3888Z" fill="white"/>
<path fill-rule="evenodd" clip-rule="evenodd" d="M77.4234 33.4776C76.829 34.1912 76.0652 34.554 75.2746 34.4996C74.5737 34.4514 73.9406 34.0776 73.5811 33.4998C72.3475 31.5201 73.0249 28.914 74.1755 27.3305C74.8529 26.3993 75.6452 25.8616 76.312 25.8616C76.4062 25.8616 76.4981 25.8725 76.5873 25.8944C77.2686 26.064 78.1624 26.4198 78.5466 27.1544C80.1256 30.1776 77.5344 33.3442 77.4234 33.4776ZM78.2219 22.9861C76.4617 22.4738 74.8613 22.653 73.4651 23.5185C71.3667 24.8186 70.2172 27.4474 69.9565 28.8969C68.9824 34.3112 71.3942 36.9989 73.9759 37.7088C74.4604 37.8419 74.932 37.9045 75.3895 37.9045C78.4765 37.9045 80.8888 35.0528 81.8023 31.8265C82.7841 28.3566 82.0826 24.1101 78.2219 22.9861Z" fill="white"/>
</g>
<defs>
<clipPath id="clip0_601_1816">
<rect width="120" height="34.7664" fill="white" transform="translate(11 7)"/>
</clipPath>
</defs>
</svg>
