<svg width="11" height="11" viewBox="0 0 11 11" fill="none" xmlns="http://www.w3.org/2000/svg">
<path d="M0.5 9.87491H10.5M5.05806 1.56685L3.44194 3.18297C3.19786 3.42704 2.80214 3.42704 2.55806 3.18297L1.56694 2.19185C1.17321 1.79812 0.5 2.07697 0.5 2.63379V7.37491C0.5 7.72009 0.779825 7.99991 1.125 7.99991H9.875C10.2202 7.99991 10.5 7.72009 10.5 7.37491V2.63379C10.5 2.07697 9.82681 1.79812 9.43306 2.19185L8.44194 3.18297C8.19787 3.42704 7.80213 3.42704 7.55806 3.18297L5.94194 1.56685C5.69787 1.32277 5.30213 1.32277 5.05806 1.56685Z" stroke="#FAA61A" stroke-linecap="round" stroke-linejoin="round"/>
</svg>
