<svg width="25" height="25" viewBox="0 0 25 25" fill="none" xmlns="http://www.w3.org/2000/svg">
<g opacity="0.2">
<path d="M12.5 2.08301C6.75629 2.08301 2.08337 6.75592 2.08337 12.4997C2.08337 18.2434 6.75629 22.9163 12.5 22.9163C18.2438 22.9163 22.9167 18.2434 22.9167 12.4997C22.9167 6.75592 18.2438 2.08301 12.5 2.08301ZM18.0001 9.60384L11.7506 15.9169C11.598 16.0695 11.398 16.1455 11.198 16.1455C10.998 16.1455 10.798 16.0695 10.6454 15.9169L7.00006 12.208C6.69485 11.9028 6.69485 11.4048 7.00006 11.0996C7.30527 10.7944 7.69485 10.6944 8.00006 10.9996L11.1974 14.2596L17.0001 8.49963C17.3053 8.19443 17.6949 8.18443 18.0001 8.48963C18.3053 8.79484 18.3047 9.29863 18.0001 9.60384Z" fill="#447B5D"/>
</g>
</svg>
