<svg width="25" height="25" viewBox="0 0 25 25" fill="none" xmlns="http://www.w3.org/2000/svg" id="my-svg">
  <path d="M12.4999 2.08301C6.75617 2.08301 2.08325 6.75592 2.08325 12.4997C2.08325 18.2434 6.75617 22.9163 12.4999 22.9163C18.2437 22.9163 22.9166 18.2434 22.9166 12.4997C22.9166 6.75592 18.2437 2.08301 12.4999 2.08301ZM17.9999 9.60384L11.7504 15.9169C11.5978 16.0695 11.3978 16.1455 11.1978 16.1455C10.9978 16.1455 10.7978 16.0695 10.6452 15.9169L6.99994 12.208C6.69473 11.9028 6.69473 11.4048 6.99994 11.0996C7.30515 10.7944 7.69473 10.6944 7.99994 10.9996L11.1973 14.2596L16.9999 8.49963C17.3051 8.19443 17.6947 8.18443 17.9999 8.48963C18.3051 8.79484 18.3046 9.29863 17.9999 9.60384Z" fill="#447B5D"/>
</svg>
