<svg width="350" height="49" viewBox="0 0 350 49" fill="none" xmlns="http://www.w3.org/2000/svg">
<path d="M107.821 37.0201C102.633 37.0201 99.5914 33.9289 99.5914 28.6867V0H107.349V28.2142C107.349 29.6909 107.979 30.4194 109.397 30.4194H111.282V37.0201H107.821ZM246.264 37.0201C241.076 37.0201 238.034 33.9289 238.034 28.6867V0H245.791V28.2142C245.791 29.6909 246.422 30.4194 247.839 30.4194H249.724V37.0201H246.264Z" fill="#447B5D"/>
<path d="M136.902 10.7157H129.145V24.9902C129.145 28.6572 127.259 30.2323 124.744 30.2323C122.229 30.2323 120.314 28.6572 120.314 24.9902V10.7157H112.581V25.4528C112.581 32.6836 117.996 37.0348 123.942 37.0348C125.842 37.0348 128.638 36.0504 129.209 34.2243V35.5729C129.209 39.7667 126.255 41.8094 122.967 41.8094C121.619 41.8514 120.283 41.5517 119.082 40.938C117.882 40.3243 116.856 39.4168 116.101 38.2999L110.913 42.8234C114.058 47.4355 119.088 48.5873 122.76 48.5873C131.305 48.5873 136.912 43.5568 136.912 35.1152V10.7157H136.902ZM13.29 23.3904C13.29 14.9537 19.3197 9.08151 27.4956 9.08151C35.6714 9.08151 41.77 14.9537 41.77 23.3904C41.77 31.8271 35.7255 37.7043 27.4956 37.7043C19.2656 37.7043 13.29 31.8321 13.29 23.3904ZM33.8403 23.3904C33.8403 18.5716 31.1134 15.948 27.4956 15.948C23.8777 15.948 21.2591 18.5716 21.2591 23.3904C21.2591 28.2093 23.9319 30.887 27.4956 30.887C31.0593 30.887 33.8403 28.2142 33.8403 23.3904ZM97.0959 25.3298H78.5883C79.1691 29.4743 81.5416 31.1479 84.9331 31.1479C87.6058 31.1479 89.6486 30.2569 91.1203 28.0567L96.4757 32.408C93.8423 35.9716 89.5846 37.7043 84.9331 37.7043C76.4914 37.7043 70.7275 31.9896 70.7275 23.3904C70.7275 14.9537 76.2306 9.08151 84.1455 9.08151C91.8537 9.08151 97.1451 14.8996 97.1451 23.3904C97.1451 23.9663 97.1451 24.7539 97.0959 25.3298ZM78.7557 20.1811H89.3877C88.7084 16.6667 86.8183 15.1998 84.1455 15.1998C81.1922 15.1998 79.3759 16.77 78.7311 20.1811H78.7557ZM333.83 25.3298H315.328C315.904 29.4743 318.281 31.1479 321.673 31.1479C324.345 31.1479 326.388 30.2569 327.855 28.0567L333.2 32.408C330.582 35.9716 326.344 37.7043 321.673 37.7043C313.231 37.7043 307.467 31.9896 307.467 23.3904C307.467 14.9537 312.97 9.08151 320.885 9.08151C328.588 9.08151 333.885 14.8996 333.885 23.3904C333.885 23.9663 333.885 24.7539 333.83 25.3298ZM315.485 20.1811H326.127C325.443 16.6667 323.558 15.1998 320.885 15.1998C317.946 15.2146 316.115 16.7848 315.485 20.1811ZM250.221 23.4101C250.221 31.5072 255.601 37.7633 262.591 37.7633C266.43 37.7633 268.724 36.0258 270.353 33.5548V37.0004H278.106V23.4101C278.106 12.089 269.586 9.0569 264.324 9.0569C255.331 9.0569 250.221 15.3131 250.221 23.4101ZM258.156 23.4593C258.156 18.6257 260.681 15.9431 264.309 15.9431C267.937 15.9431 270.462 18.6257 270.462 23.4593C270.462 28.293 267.937 30.9264 264.324 30.9264C260.711 30.9264 258.171 28.2979 258.171 23.4593H258.156ZM350 16.7356H344.064V26.644C344.064 29.1576 345.058 30.4161 347.047 30.4194H350V37.0201H346.062C339.929 37.0201 336.311 33.2497 336.311 26.959V1.47667L344.064 1.56035V10.7157H349.97L350 16.7356ZM8.22997 37.0398C3.04194 37.0398 0 33.9634 0 28.7015V0H7.75743V28.2339C7.75743 29.7106 8.38748 30.4341 9.80016 30.4341H11.6903V37.0398H8.22997ZM221.289 9.07167C216.027 9.07167 207.506 12.1234 207.506 23.4249V45.9785H215.234V33.5745C216.864 36.0356 219.172 37.7781 223.002 37.7781C229.991 37.7781 235.371 31.522 235.371 23.4249C235.371 15.3278 230.252 9.07167 221.289 9.07167ZM221.289 30.9461C217.661 30.9461 215.136 28.3176 215.136 23.479C215.136 18.6405 217.661 15.9628 221.289 15.9628C224.916 15.9628 227.407 18.6405 227.407 23.479C227.407 28.3176 224.887 30.9461 221.259 30.9461H221.289ZM68.4731 20.6734V37.0201H60.7157V21.136C60.7157 17.469 58.8256 15.8988 56.3103 15.8988C53.795 15.8988 51.9098 17.469 51.9098 21.136V37.0201H44.1475V20.6734C44.1475 13.4377 49.3896 9.08643 56.3103 9.08643C63.231 9.08643 68.4731 13.4328 68.4731 20.6734ZM305.454 20.6734V37.0201H297.696V21.136C297.696 17.469 295.806 15.8988 293.291 15.8988C290.776 15.8988 288.891 17.469 288.891 21.136V37.0201H281.133V20.6734C281.133 13.4377 286.37 9.08643 293.291 9.08643C300.212 9.08643 305.454 13.4328 305.454 20.6734ZM172.337 0.516834C166.751 0.515153 161.365 2.59125 157.225 6.34127C153.085 10.0913 150.488 15.2471 149.94 20.8058C149.391 26.3645 150.929 31.9285 154.256 36.4157C157.582 40.9028 162.459 43.9922 167.937 45.0828C173.415 46.1734 179.103 45.1873 183.895 42.3163C188.686 39.4453 192.238 34.8947 193.86 29.5497C195.482 24.2047 195.058 18.4474 192.67 13.3979C190.282 8.3483 186.102 4.36748 180.941 2.22977C178.213 1.09915 175.29 0.51708 172.337 0.516834ZM173.297 43.5617C171.703 43.631 170.105 43.517 168.537 43.2221C168.498 43.2155 168.463 43.1944 168.439 43.163C168.416 43.1328 168.403 43.097 168.399 43.0597C168.4 43.0201 168.414 42.9819 168.439 42.9514C168.463 42.92 168.498 42.8989 168.537 42.8923C169.861 42.6265 172.445 41.9522 174.444 40.4755C176.344 39.0677 177.816 36.7789 176.718 33.988C174.153 27.466 166.509 29.0411 165.387 29.3365H165.333C165.316 29.3323 165.301 29.3238 165.288 29.3119C165.276 29.301 165.266 29.2875 165.259 29.2725C165.257 29.2562 165.257 29.2396 165.259 29.2233L165.539 24.4832C166.032 20.0532 165.106 18.4879 165.106 18.4879C162.842 13.9841 157.836 14.9488 157.836 14.9488C156.993 15.0994 156.195 15.4357 155.498 15.9333C153.899 17.0834 152.758 18.7627 152.279 20.6734C152.269 20.7134 152.244 20.7483 152.21 20.7718C152.176 20.7961 152.134 20.8067 152.092 20.8013C152.052 20.7943 152.015 20.7731 151.989 20.7415C151.963 20.7099 151.949 20.6701 151.949 20.6291C152.026 19.4568 152.251 18.2991 152.619 17.1835C154.082 12.2035 157.367 7.95743 161.821 5.2911C166.274 2.62476 171.568 1.73385 176.649 2.79583C176.695 2.80473 176.737 2.82903 176.767 2.86474C176.799 2.90199 176.818 2.94864 176.821 2.99764C176.822 3.04413 176.806 3.08933 176.777 3.12562C176.75 3.16435 176.71 3.19223 176.664 3.20437C175.453 3.51343 174.34 4.12483 173.43 4.9813C173.43 4.9813 171.53 6.45796 171.308 10.1447C171.255 11.1229 171.328 12.104 171.525 13.0636L173.41 22.5684C173.668 23.919 174.43 25.1209 175.541 25.9303C176.426 26.5902 177.535 26.8749 178.628 26.7228C178.628 26.7228 182.797 26.5308 182.122 22.3912L181.63 19.9301C181.625 19.9008 181.625 19.8708 181.63 19.8415C181.639 19.8156 181.65 19.7908 181.665 19.7677C181.681 19.7445 181.701 19.7245 181.724 19.7086C181.748 19.6945 181.775 19.6845 181.803 19.6791C182.979 19.492 188.512 18.2319 188.812 11.1292C188.814 11.0846 188.829 11.0417 188.856 11.0061C188.884 10.9718 188.922 10.9462 188.964 10.9323C189.006 10.92 189.051 10.92 189.092 10.9323C189.133 10.9476 189.168 10.973 189.196 11.0061C191.348 14.0276 192.645 17.5739 192.95 21.2711C193.256 24.9683 192.557 28.6793 190.929 32.0128C189.302 35.3462 186.804 38.1786 183.701 40.2113C180.598 42.2439 177.003 43.4014 173.297 43.5617Z" fill="#447B5D"/>
</svg>
