<svg width="350" height="49" viewBox="0 0 350 49" fill="none" xmlns="http://www.w3.org/2000/svg">
<path d="M107.821 37.2264C102.633 37.2264 99.5914 34.1352 99.5914 28.893V0.206299H107.349V28.4205C107.349 29.8972 107.979 30.6257 109.397 30.6257H111.282V37.2264H107.821ZM246.264 37.2264C241.076 37.2264 238.034 34.1352 238.034 28.893V0.206299H245.792V28.4205C245.792 29.8972 246.422 30.6257 247.839 30.6257H249.724V37.2264H246.264Z" fill="white"/>
<path d="M136.902 10.922H129.145V25.1965C129.145 28.8635 127.259 30.4386 124.744 30.4386C122.229 30.4386 120.314 28.8635 120.314 25.1965V10.922H112.581V25.6591C112.581 32.8899 117.996 37.2411 123.942 37.2411C125.842 37.2411 128.638 36.2567 129.209 34.4306V35.7792C129.209 39.973 126.255 42.0157 122.967 42.0157C121.619 42.0577 120.283 41.7579 119.082 41.1443C117.882 40.5306 116.856 39.6231 116.101 38.5062L110.913 43.0297C114.058 47.6418 119.088 48.7936 122.76 48.7936C131.305 48.7936 136.912 43.7631 136.912 35.3215V10.922H136.902ZM13.29 23.5967C13.29 15.16 19.3197 9.28781 27.4956 9.28781C35.6714 9.28781 41.77 15.16 41.77 23.5967C41.77 32.0334 35.7255 37.9106 27.4956 37.9106C19.2656 37.9106 13.29 32.0384 13.29 23.5967ZM33.8403 23.5967C33.8403 18.7779 31.1134 16.1543 27.4956 16.1543C23.8777 16.1543 21.2591 18.7779 21.2591 23.5967C21.2591 28.4156 23.9319 31.0933 27.4956 31.0933C31.0593 31.0933 33.8403 28.4205 33.8403 23.5967ZM97.0959 25.5361H78.5883C79.1691 29.6806 81.5416 31.3542 84.9331 31.3542C87.6058 31.3542 89.6486 30.4632 91.1203 28.263L96.4757 32.6143C93.8423 36.1779 89.5846 37.9106 84.9331 37.9106C76.4914 37.9106 70.7275 32.1959 70.7275 23.5967C70.7275 15.16 76.2306 9.28781 84.1455 9.28781C91.8537 9.28781 97.1451 15.1059 97.1451 23.5967C97.1451 24.1726 97.1451 24.9602 97.0959 25.5361ZM78.7557 20.3874H89.3877C88.7084 16.873 86.8183 15.4061 84.1455 15.4061C81.1922 15.4061 79.3759 16.9763 78.7311 20.3874H78.7557ZM333.831 25.5361H315.328C315.904 29.6806 318.281 31.3542 321.673 31.3542C324.345 31.3542 326.388 30.4632 327.855 28.263L333.2 32.6143C330.582 36.1779 326.344 37.9106 321.673 37.9106C313.231 37.9106 307.467 32.1959 307.467 23.5967C307.467 15.16 312.97 9.28781 320.885 9.28781C328.588 9.28781 333.885 15.1059 333.885 23.5967C333.885 24.1726 333.885 24.9602 333.831 25.5361ZM315.485 20.3874H326.127C325.443 16.873 323.558 15.4061 320.885 15.4061C317.946 15.4209 316.115 16.9911 315.485 20.3874ZM250.221 23.6164C250.221 31.7135 255.601 37.9696 262.591 37.9696C266.43 37.9696 268.724 36.2321 270.353 33.7611V37.2067H278.106V23.6164C278.106 12.2953 269.586 9.2632 264.324 9.2632C255.331 9.2632 250.221 15.5194 250.221 23.6164ZM258.156 23.6656C258.156 18.832 260.681 16.1494 264.309 16.1494C267.937 16.1494 270.462 18.832 270.462 23.6656C270.462 28.4993 267.937 31.1327 264.324 31.1327C260.711 31.1327 258.171 28.5042 258.171 23.6656H258.156ZM350 16.9419H344.064V26.8503C344.064 29.3639 345.058 30.6224 347.047 30.6257H350V37.2264H346.062C339.929 37.2264 336.311 33.456 336.311 27.1653V1.68297L344.064 1.76665V10.922H349.97L350 16.9419ZM8.22997 37.2461C3.04194 37.2461 0 34.1697 0 28.9078V0.206299H7.75743V28.4402C7.75743 29.9169 8.38748 30.6404 9.80016 30.6404H11.6903V37.2461H8.22997ZM221.289 9.27797C216.027 9.27797 207.506 12.3297 207.506 23.6312V46.1848H215.234V33.7808C216.864 36.2419 219.172 37.9844 223.002 37.9844C229.991 37.9844 235.371 31.7283 235.371 23.6312C235.371 15.5341 230.252 9.27797 221.289 9.27797ZM221.289 31.1524C217.661 31.1524 215.136 28.5239 215.136 23.6853C215.136 18.8468 217.661 16.1691 221.289 16.1691C224.916 16.1691 227.407 18.8468 227.407 23.6853C227.407 28.5239 224.887 31.1524 221.259 31.1524H221.289ZM68.4731 20.8797V37.2264H60.7157V21.3423C60.7157 17.6753 58.8256 16.1051 56.3103 16.1051C53.795 16.1051 51.9098 17.6753 51.9098 21.3423V37.2264H44.1475V20.8797C44.1475 13.644 49.3896 9.29273 56.3103 9.29273C63.231 9.29273 68.4731 13.6391 68.4731 20.8797ZM305.454 20.8797V37.2264H297.696V21.3423C297.696 17.6753 295.806 16.1051 293.291 16.1051C290.776 16.1051 288.891 17.6753 288.891 21.3423V37.2264H281.133V20.8797C281.133 13.644 286.37 9.29273 293.291 9.29273C300.212 9.29273 305.454 13.6391 305.454 20.8797ZM172.337 0.723133C166.751 0.721452 161.365 2.79755 157.225 6.54757C153.085 10.2976 150.488 15.4534 149.94 21.0121C149.391 26.5708 150.929 32.1348 154.256 36.622C157.582 41.1091 162.459 44.1985 167.937 45.2891C173.415 46.3797 179.103 45.3936 183.895 42.5226C188.686 39.6516 192.238 35.101 193.86 29.756C195.482 24.411 195.058 18.6537 192.67 13.6042C190.282 8.5546 186.102 4.57378 180.941 2.43607C178.213 1.30544 175.29 0.723378 172.337 0.723133ZM173.297 43.768C171.703 43.8373 170.105 43.7233 168.537 43.4284C168.498 43.4218 168.463 43.4007 168.439 43.3693C168.416 43.3391 168.403 43.3033 168.399 43.266C168.4 43.2264 168.414 43.1882 168.439 43.1577C168.463 43.1263 168.498 43.1052 168.537 43.0986C169.861 42.8328 172.445 42.1585 174.444 40.6818C176.344 39.274 177.816 36.9852 176.718 34.1943C174.153 27.6723 166.509 29.2474 165.387 29.5428H165.333C165.316 29.5386 165.301 29.5301 165.288 29.5182C165.276 29.5073 165.266 29.4938 165.259 29.4788C165.257 29.4625 165.257 29.4459 165.259 29.4296L165.539 24.6895C166.032 20.2595 165.106 18.6942 165.106 18.6942C162.842 14.1904 157.836 15.1551 157.836 15.1551C156.993 15.3057 156.195 15.642 155.498 16.1396C153.899 17.2897 152.758 18.969 152.279 20.8797C152.269 20.9197 152.244 20.9546 152.21 20.9781C152.176 21.0024 152.134 21.013 152.092 21.0076C152.052 21.0006 152.015 20.9794 151.989 20.9478C151.963 20.9162 151.949 20.8764 151.949 20.8354C152.026 19.6631 152.251 18.5054 152.619 17.3898C154.082 12.4098 157.367 8.16373 161.821 5.4974C166.274 2.83106 171.568 1.94015 176.649 3.00212C176.695 3.01103 176.737 3.03533 176.767 3.07104C176.799 3.10829 176.818 3.15494 176.821 3.20394C176.822 3.25042 176.806 3.29563 176.777 3.33191C176.75 3.37065 176.71 3.39853 176.664 3.41067C175.453 3.71972 174.34 4.33113 173.43 5.18759C173.43 5.18759 171.53 6.66426 171.308 10.351C171.255 11.3292 171.328 12.3103 171.525 13.2699L173.41 22.7747C173.668 24.1253 174.43 25.3272 175.541 26.1366C176.426 26.7965 177.535 27.0812 178.628 26.9291C178.628 26.9291 182.797 26.7371 182.122 22.5975L181.63 20.1364C181.625 20.1071 181.625 20.0771 181.63 20.0478C181.639 20.0219 181.65 19.9971 181.665 19.974C181.681 19.9508 181.701 19.9308 181.724 19.9149C181.748 19.9008 181.775 19.8908 181.803 19.8854C182.979 19.6983 188.512 18.4382 188.812 11.3355C188.814 11.2909 188.829 11.248 188.856 11.2124C188.884 11.1781 188.922 11.1525 188.964 11.1386C189.006 11.1263 189.051 11.1263 189.092 11.1386C189.133 11.1539 189.168 11.1793 189.196 11.2124C191.348 14.2339 192.645 17.7802 192.95 21.4774C193.256 25.1746 192.557 28.8856 190.929 32.2191C189.302 35.5525 186.804 38.3849 183.701 40.4176C180.598 42.4502 177.003 43.6077 173.297 43.768Z" fill="white"/>
</svg>
