<svg width="26" height="12" viewBox="0 0 26 12" fill="none" xmlns="http://www.w3.org/2000/svg">
<path d="M1 5.3C0.613401 5.3 0.3 5.6134 0.3 6C0.3 6.3866 0.613401 6.7 1 6.7V5.3ZM25.495 6.49497C25.7683 6.22161 25.7683 5.77839 25.495 5.50503L21.0402 1.05025C20.7668 0.776886 20.3236 0.776886 20.0503 1.05025C19.7769 1.32362 19.7769 1.76684 20.0503 2.0402L24.01 6L20.0503 9.9598C19.7769 10.2332 19.7769 10.6764 20.0503 10.9497C20.3236 11.2231 20.7668 11.2231 21.0402 10.9497L25.495 6.49497ZM1 6.7H25V5.3H1V6.7Z" fill="#4F5358"/>
</svg>
