<svg width="60" height="42" viewBox="0 0 60 42" fill="none" xmlns="http://www.w3.org/2000/svg">
<path d="M56.8965 0.827148H3.10342C1.6751 0.827148 0.517212 1.98503 0.517212 3.41336V38.5858C0.517212 40.0141 1.6751 41.172 3.10342 41.172H56.8965C58.3248 41.172 59.4827 40.0141 59.4827 38.5858V3.41336C59.4827 1.98503 58.3248 0.827148 56.8965 0.827148Z" fill="url(#paint0_linear_513_1123)"/>
<path fill-rule="evenodd" clip-rule="evenodd" d="M22.5776 20.3872H30.7016C30.6292 18.6312 30.2201 16.8208 28.9791 15.6579C27.5009 14.2726 24.9117 13.7588 22.5982 13.7588C20.1902 13.7588 17.5273 14.3224 16.0412 15.8086C14.7598 17.089 14.4828 19.149 14.4828 20.9998C14.4828 22.9385 15.0248 25.1935 16.4149 26.4925C17.8931 27.8746 20.2883 28.2415 22.5982 28.2415C24.8422 28.2415 27.2729 27.8272 28.7425 26.5151C30.208 25.2044 30.7144 22.9968 30.7144 20.9998V20.9904H22.5776V20.3872ZM31.2469 20.9908V27.9178H42.5481V27.9083C44.2017 27.8182 45.5173 26.3272 45.5173 24.4966C45.5173 22.6652 44.2017 21.0786 42.5481 20.9877V20.9908H31.2469ZM42.4194 14.0489C44.0311 14.0489 45.3104 15.4473 45.3104 17.2119C45.3104 18.8824 44.1355 20.2467 42.641 20.3873H31.2467V14.0387H42.0628C42.1293 14.0305 42.2069 14.0363 42.2828 14.0419C42.33 14.0453 42.3766 14.0489 42.4194 14.0489Z" fill="#FEFEFE"/>
<defs>
<linearGradient id="paint0_linear_513_1123" x1="16.2743" y1="-4.93008" x2="1.69313" y2="39.8317" gradientUnits="userSpaceOnUse">
<stop stop-color="#222E72"/>
<stop offset="0.591647" stop-color="#40CBFF"/>
<stop offset="1" stop-color="#3CB792"/>
</linearGradient>
</defs>
</svg>
