<svg width="120" height="39" viewBox="0 0 120 39" fill="none" xmlns="http://www.w3.org/2000/svg">
<g clip-path="url(#clip0_180_1860)">
<mask id="mask0_180_1860" style="mask-type:luminance" maskUnits="userSpaceOnUse" x="0" y="0" width="120" height="39">
<path d="M120 0H0V38.7201H120V0Z" fill="white"/>
</mask>
<g mask="url(#mask0_180_1860)">
<path d="M114.151 6.54834L8.69095 11.1088L5.84595 31.4165L16.0178 30.9877L15.0045 36.3667L24.8256 30.6369L111.111 27.1289L114.151 6.54834Z" fill="#AB1205"/>
<path d="M116.996 0L5.14435 5.06716L1.09119 29.3896L13.5235 28.8439L12.0815 36.3668L23.8122 28.4152L114.034 24.4783L116.996 0Z" fill="#ED4A3A"/>
<path d="M18.629 11.3037L15.0435 24.2445L10.055 24.4394L11.2242 20.2687L7.28792 20.4246L6.11872 24.5953L1.13025 24.7902L4.7157 11.8494L9.70421 11.6545L8.45708 16.215L12.3933 16.059L13.6404 11.4986L18.629 11.3037Z" fill="#AB1205"/>
<path d="M17.4987 19.2162C17.3038 14.8117 21.0452 10.7969 26.2675 10.5631C30.1648 10.4071 32.4252 12.3171 32.5421 15.6692C32.737 20.0737 28.9957 24.0885 23.7733 24.3224C19.915 24.4393 17.6546 22.5294 17.4987 19.2162ZM27.5926 16.6437C27.5536 15.3964 26.5793 14.8506 25.605 14.8896C23.5784 14.9676 22.4093 16.7606 22.4482 18.2028C22.4872 19.4891 23.4615 20.0348 24.4358 19.9958C26.4624 19.8788 27.6316 18.0858 27.5926 16.6437Z" fill="#AB1205"/>
<path d="M33.0878 17.5401L35.0754 10.641L40.1418 10.4461L38.0373 17.735C37.6865 18.8654 38.0763 19.606 39.4793 19.567C40.8825 19.528 41.5449 18.7875 42.0125 17.1114L43.9223 10.3292L48.9886 10.1343L46.9229 17.5012C45.676 21.9447 43.4546 23.5818 38.9726 23.7767C33.9062 23.8936 31.8796 21.7498 33.0878 17.5401Z" fill="#AB1205"/>
<path d="M59.3942 18.4759L60.4075 22.4127L55.6139 22.6076L54.9123 19.6843L52.1453 19.8012L51.3268 22.8025L46.2997 22.9584L49.8851 10.0176L56.7832 9.7448C60.2127 9.58887 61.9276 10.7972 62.0056 13.4477C62.1224 15.7085 60.9531 17.4235 59.3942 18.4759ZM53.1198 16.0983L55.6139 15.9813C56.0428 15.9813 56.978 15.6305 56.9392 14.734C56.9 14.0714 56.5492 13.8765 55.7699 13.9155L53.7042 13.9934L53.1198 16.0983Z" fill="#AB1205"/>
<path d="M73.9311 17.852L74.9444 21.7888L70.1509 21.9837L69.4492 19.0603L66.6822 19.1772L65.8637 22.1786L60.875 22.3735L64.4609 9.43266L71.3589 9.15984C74.7884 9.00391 76.5033 10.2122 76.5813 12.8628C76.6981 15.1235 75.5288 16.8385 73.9311 17.852ZM67.6955 15.5133L70.1896 15.3964C70.6185 15.3964 71.5537 15.0455 71.5145 14.149C71.4757 13.4864 71.1249 13.2915 70.3457 13.3305L68.2799 13.4085L67.6955 15.5133Z" fill="#AB1205"/>
<path d="M85.584 21.3603L85.5448 19.9961L80.7125 20.1909L79.894 21.5942L74.5936 21.828L82.583 8.73136L89.5979 8.4585L90.5335 21.2044L85.584 21.3603ZM85.4668 16.3321L85.3892 13.2918L84.6875 13.3308L82.8946 16.449L85.4668 16.3321Z" fill="#AB1205"/>
<path d="M94.3917 8.22419L99.3801 8.0293L95.7946 20.9701L90.8063 21.165L94.3917 8.22419Z" fill="#AB1205"/>
<path d="M100.315 7.9903L105.304 7.79541L102.81 16.5266L109.552 16.2537L108.383 20.4634L96.652 20.9311L100.315 7.9903Z" fill="#AB1205"/>
<path d="M112.007 18.4365C111.929 16.8774 113.215 15.6301 114.658 15.5911C115.866 15.5521 116.723 16.3317 116.762 17.54C116.84 19.0991 115.554 20.3464 114.112 20.3854C112.903 20.4244 112.085 19.6448 112.007 18.4365ZM114.852 7.32771L119.997 7.13281L116.606 14.9284L113.527 15.0454L114.852 7.32771Z" fill="#AB1205"/>
<path d="M17.4987 9.43262L13.9132 22.3734L8.92474 22.5683L10.0939 18.3976L6.15767 18.5535L4.98851 22.7242L0 22.9191L3.58547 9.9783L8.57396 9.7834L7.32683 14.3439L11.2631 14.188L12.5102 9.62751L17.4987 9.43262Z" fill="white"/>
<path d="M16.3685 17.3451C16.1736 12.9406 19.915 8.92586 25.1373 8.69196C29.0346 8.53607 31.295 10.446 31.4119 13.7981C31.6067 18.2027 27.8654 22.2174 22.643 22.4513C18.7848 22.6072 16.5244 20.6583 16.3685 17.3451ZM26.4624 14.7726C26.4234 13.5253 25.4491 12.9796 24.4748 13.0186C22.4482 13.0965 21.279 14.8895 21.318 16.3317C21.3569 17.618 22.3313 18.1637 23.3056 18.1247C25.3321 18.0078 26.5013 16.2537 26.4624 14.7726Z" fill="white"/>
<path d="M31.9575 15.6691L33.9451 8.7699L39.0115 8.57501L36.907 15.864C36.5563 16.9943 36.946 17.7349 38.349 17.6959C39.752 17.657 40.4146 16.9164 40.882 15.2403L42.7918 8.45808L47.8585 8.26318L45.7928 15.6301C44.5455 20.0736 42.3241 21.7107 37.8423 21.9056C32.7759 22.0225 30.7494 19.8787 31.9575 15.6691Z" fill="white"/>
<path d="M58.2641 16.6048L59.2774 20.5416L54.4838 20.7365L53.7822 17.8132L50.9764 17.8911L50.1579 20.8925L45.1692 21.0874L48.7546 8.14656L55.6531 7.8737C59.0826 7.71781 60.7975 8.92613 60.8751 11.5766C60.9923 13.8374 59.823 15.5524 58.2641 16.6048ZM51.9897 14.2272L54.4838 14.1102C54.9123 14.1102 55.8479 13.7594 55.8087 12.8629C55.7699 12.2003 55.4191 12.0054 54.6398 12.0444L52.5741 12.1224L51.9897 14.2272Z" fill="white"/>
<path d="M72.8007 15.9809L73.814 19.9177L69.0204 20.1126L68.3192 17.1892L65.5518 17.3062L64.7333 20.3075L59.745 20.5024L63.3304 7.5616L70.2285 7.28874C73.6584 7.13285 75.3729 8.34117 75.4509 10.9917C75.5681 13.2524 74.3988 14.9675 72.8007 15.9809ZM66.5651 13.6422L69.0596 13.5253C69.4881 13.5253 70.4237 13.1745 70.3845 12.278C70.3457 11.6154 69.9949 11.4205 69.2153 11.4594L67.1499 11.5374L66.5651 13.6422Z" fill="white"/>
<path d="M84.4535 19.4892L84.4147 18.125L79.5819 18.3199L78.7635 19.7231L73.4635 19.957L81.4529 6.86026L88.4678 6.5874L89.403 19.3333L84.4535 19.4892ZM84.3367 14.461L84.2587 11.4207L83.5574 11.4597L81.7645 14.578L84.3367 14.461Z" fill="white"/>
<path d="M93.2612 6.35359L98.25 6.15869L94.6645 19.0995L89.6758 19.2944L93.2612 6.35359Z" fill="white"/>
<path d="M99.1853 6.1197L104.174 5.9248L101.679 14.6559L108.422 14.3831L107.253 18.5927L95.5219 19.0605L99.1853 6.1197Z" fill="white"/>
<path d="M110.877 16.5659C110.799 15.0068 112.085 13.7595 113.527 13.7205C114.735 13.6815 115.593 14.4611 115.632 15.6694C115.71 17.2285 114.424 18.4759 112.981 18.5148C111.773 18.5538 110.955 17.7743 110.877 16.5659ZM113.722 5.4571L118.866 5.26221L115.476 13.0579L112.397 13.1748L113.722 5.4571Z" fill="white"/>
</g>
</g>
<defs>
<clipPath id="clip0_180_1860">
<rect width="120" height="38.7201" fill="white"/>
</clipPath>
</defs>
</svg>
