<svg width="120" height="32" viewBox="0 0 120 32" fill="none" xmlns="http://www.w3.org/2000/svg">
<path d="M38.3722 6.3623C38.1252 6.3623 37.9154 6.5416 37.8768 6.78573L35.0181 24.915C35.0077 24.9813 35.0118 25.049 35.03 25.1135C35.0483 25.178 35.0803 25.2377 35.1239 25.2887C35.1674 25.3396 35.2215 25.3805 35.2824 25.4086C35.3433 25.4366 35.4095 25.4511 35.4766 25.4512H38.8668C39.1134 25.4512 39.3235 25.2715 39.3622 25.0277L40.2019 19.7039C40.2402 19.4601 40.4503 19.2805 40.6973 19.2805H43.7796C47.381 19.2805 50.4382 16.6528 50.9966 13.0921C51.5596 9.50132 48.7544 6.3701 44.7785 6.3623H38.3722ZM41.6678 10.4095H44.1339C46.1642 10.4095 46.8254 11.6075 46.6164 12.9323C46.4073 14.26 45.3805 15.2379 43.4164 15.2379H40.9063L41.6678 10.4095ZM57.8919 11.6418C57.0358 11.645 56.0508 11.8204 54.9449 12.281C52.4083 13.3384 51.1901 15.5235 50.6727 17.1166C50.6727 17.1166 49.0262 21.9769 52.7463 24.6472C52.7463 24.6472 56.1964 27.2178 60.0802 24.4888L60.0132 24.915C60.0029 24.9812 60.0069 25.0488 60.0252 25.1133C60.0434 25.1777 60.0753 25.2375 60.1188 25.2884C60.1623 25.3393 60.2163 25.3803 60.2771 25.4083C60.3379 25.4364 60.4041 25.451 60.471 25.4512H63.6894C63.9364 25.4512 64.1461 25.2715 64.1848 25.0277L66.1425 12.6127C66.1529 12.5465 66.149 12.4788 66.1308 12.4142C66.1126 12.3497 66.0807 12.2899 66.0372 12.2389C65.9937 12.1878 65.9396 12.1469 65.8788 12.1187C65.8179 12.0906 65.7517 12.076 65.6847 12.0759H62.4663C62.2193 12.0759 62.0092 12.2555 61.9709 12.4993L61.8657 13.1676C61.8657 13.1676 60.4604 11.6323 57.8919 11.6418ZM57.9971 15.5632C58.3667 15.5632 58.7047 15.6142 59.008 15.7117C60.3966 16.1574 61.1839 17.4915 60.9561 18.9375C60.6751 20.718 59.2149 22.029 57.3423 22.029C56.9731 22.029 56.635 21.9784 56.3314 21.8809C54.9431 21.4352 54.1508 20.1011 54.3787 18.6551C54.6597 16.8746 56.1245 15.5632 57.9971 15.5632Z" fill="#003087"/>
<path d="M84.7183 6.3623C84.4714 6.3623 84.2616 6.5416 84.223 6.78573L81.3642 24.915C81.3539 24.9813 81.3579 25.049 81.3762 25.1135C81.3945 25.178 81.4265 25.2377 81.4701 25.2887C81.5136 25.3396 81.5677 25.3805 81.6286 25.4086C81.6895 25.4366 81.7557 25.4511 81.8228 25.4512H85.213C85.4596 25.4512 85.6697 25.2715 85.7083 25.0277L86.5481 19.7039C86.5864 19.4601 86.7965 19.2805 87.0435 19.2805H90.1258C93.7272 19.2805 96.784 16.6528 97.3421 13.0921C97.9055 9.50132 95.1006 6.3701 91.1246 6.3623H84.7183ZM88.014 10.4095H90.4801C92.5104 10.4095 93.1716 11.6075 92.9626 12.9323C92.7535 14.26 91.727 15.2379 89.7626 15.2379H87.2525L88.014 10.4095ZM104.238 11.6418C103.382 11.645 102.397 11.8204 101.291 12.281C98.7541 13.3384 97.5359 15.5235 97.0186 17.1166C97.0186 17.1166 95.3727 21.9769 99.0928 24.6472C99.0928 24.6472 102.542 27.2178 106.426 24.4888L106.359 24.915C106.349 24.9813 106.353 25.049 106.371 25.1135C106.39 25.178 106.422 25.2377 106.465 25.2887C106.509 25.3396 106.563 25.3805 106.624 25.4086C106.685 25.4366 106.751 25.4511 106.818 25.4512H110.036C110.283 25.4512 110.493 25.2715 110.531 25.0277L112.49 12.6127C112.5 12.5464 112.496 12.4787 112.478 12.4141C112.46 12.3495 112.428 12.2896 112.384 12.2386C112.341 12.1876 112.287 12.1466 112.226 12.1185C112.165 12.0904 112.098 12.0759 112.031 12.0759H108.813C108.566 12.0759 108.356 12.2555 108.317 12.4993L108.212 13.1676C108.212 13.1676 106.806 11.6323 104.238 11.6418ZM104.343 15.5632C104.713 15.5632 105.051 15.6142 105.354 15.7117C106.742 16.1574 107.53 17.4915 107.302 18.9375C107.021 20.718 105.561 22.029 103.688 22.029C103.319 22.029 102.981 21.9784 102.677 21.8809C101.289 21.4352 100.497 20.1011 100.725 18.6551C101.006 16.8746 102.47 15.5632 104.343 15.5632Z" fill="#0070E0"/>
<path d="M67.6691 12.0755C67.414 12.0755 67.2325 12.3246 67.3105 12.5674L70.8389 23.5165L67.6485 28.6763C67.4937 28.9268 67.6737 29.2503 67.9681 29.2503H71.7389C71.8467 29.2502 71.9528 29.2223 72.0467 29.1693C72.1406 29.1163 72.2192 29.04 72.275 28.9477L82.1293 12.646C82.2806 12.3955 82.0999 12.0752 81.8072 12.0752H78.0368C77.9279 12.0753 77.8209 12.1037 77.7263 12.1577C77.6318 12.2117 77.5529 12.2894 77.4975 12.3831L73.6186 18.9318L71.6496 12.4317C71.5855 12.2201 71.3903 12.0752 71.1695 12.0752L67.6691 12.0755Z" fill="#003087"/>
<path d="M116.146 6.3623C115.9 6.3623 115.69 6.54195 115.651 6.78573L112.792 24.9143C112.781 24.9806 112.785 25.0484 112.803 25.113C112.822 25.1776 112.854 25.2374 112.897 25.2884C112.941 25.3395 112.995 25.3804 113.056 25.4085C113.117 25.4366 113.183 25.4512 113.25 25.4512H116.64C116.887 25.4512 117.097 25.2715 117.136 25.0277L119.994 6.89841C120.005 6.83224 120.001 6.76461 119.983 6.70017C119.964 6.63572 119.932 6.57598 119.889 6.52505C119.845 6.47412 119.791 6.4332 119.731 6.40511C119.67 6.37702 119.604 6.36242 119.537 6.3623H116.146Z" fill="#0070E0"/>
<path d="M10.1081 6.3623C9.88974 6.36249 9.67858 6.44054 9.51258 6.58245C9.34658 6.72436 9.23661 6.92081 9.20246 7.13652L7.69763 16.6808C7.76779 16.235 8.15187 15.9065 8.60329 15.9065H13.0129C17.4509 15.9065 21.2167 12.669 21.9049 8.28171C21.9561 7.95416 21.9851 7.62353 21.9917 7.29207C20.8638 6.70069 19.539 6.3623 18.0873 6.3623H10.1081Z" fill="#001C64"/>
<path d="M21.9918 7.29199C21.9852 7.62345 21.9561 7.95409 21.9049 8.28164C21.2168 12.669 17.4507 15.9065 13.013 15.9065H8.60337C8.15231 15.9065 7.76787 16.2346 7.69772 16.6807L6.31405 25.4511L5.44736 30.9531C5.43044 31.0594 5.43678 31.1681 5.46596 31.2717C5.49513 31.3753 5.54645 31.4714 5.61635 31.5532C5.68625 31.6351 5.77307 31.7008 5.87083 31.7459C5.96859 31.7909 6.07496 31.8142 6.1826 31.8141H10.9689C11.1873 31.814 11.3984 31.7359 11.5644 31.594C11.7305 31.4521 11.8404 31.2556 11.8746 31.0399L13.1353 23.0438C13.1694 22.8279 13.2795 22.6314 13.4456 22.4895C13.6118 22.3475 13.8231 22.2696 14.0416 22.2695H16.8596C21.2976 22.2695 25.0634 19.032 25.7516 14.6447C26.2402 11.5308 24.6719 8.69727 21.9918 7.29199Z" fill="#0070E0"/>
<path d="M4.67082 0C4.21975 0 3.83532 0.32811 3.76516 0.773504L0.00924385 24.5902C-0.0619766 25.0423 0.287403 25.4512 0.745198 25.4512H6.31492L7.69787 16.6808L9.2027 7.13657C9.23685 6.92087 9.34682 6.72441 9.51282 6.5825C9.67883 6.4406 9.88999 6.36254 10.1084 6.36236H18.0875C19.5396 6.36236 20.8641 6.7011 21.9919 7.29212C22.0692 3.29776 18.7732 0 14.2416 0H4.67082Z" fill="#003087"/>
</svg>
