<svg width="95" height="31" viewBox="0 0 95 31" fill="none" xmlns="http://www.w3.org/2000/svg">
<path d="M41.1666 30.3016H33.4709L38.2844 0.539062H45.9796L41.1666 30.3016Z" fill="#00579F"/>
<path d="M69.064 1.26711C67.5461 0.664907 65.1385 0 62.1616 0C54.5619 0 49.2102 4.05256 49.1774 9.84651C49.1143 14.1213 53.009 16.4956 55.922 17.9209C58.8994 19.3774 59.9114 20.328 59.9114 21.6263C59.8811 23.6202 57.5056 24.5393 55.2899 24.5393C52.2175 24.5393 50.5712 24.0654 48.0694 22.9561L47.056 22.4806L45.9791 29.1616C47.7841 29.9839 51.1094 30.7136 54.5619 30.7456C62.6367 30.7456 67.8937 26.7558 67.956 20.5814C67.9867 17.1933 65.9301 14.5972 61.4963 12.4758C58.8047 11.114 57.1563 10.1958 57.1563 8.80244C57.1879 7.53575 58.5505 6.23834 61.5889 6.23834C64.0907 6.17479 65.9289 6.77616 67.3214 7.37794L68.0174 7.69398L69.064 1.26711Z" fill="#00579F"/>
<path d="M79.2922 19.7578C79.926 18.048 82.3647 11.4305 82.3647 11.4305C82.3327 11.494 82.9972 9.6891 83.3772 8.58107L83.915 11.1456C83.915 11.1456 85.3723 18.2698 85.6888 19.7578C84.486 19.7578 80.8122 19.7578 79.2922 19.7578ZM88.7915 0.539062H82.8389C81.0033 0.539062 79.6087 1.07688 78.8167 3.00848L67.3857 30.3012H75.4606C75.4606 30.3012 76.79 26.6278 77.0757 25.8367C77.9615 25.8367 85.8167 25.8367 86.9563 25.8367C87.1772 26.8816 87.8745 30.3012 87.8745 30.3012H95L88.7915 0.539062Z" fill="#00579F"/>
<path d="M27.0431 0.539062L19.5065 20.8343L18.683 16.7182C17.2896 11.9687 12.9198 6.80854 8.04321 4.24276L14.9465 30.2701H23.0844L35.1807 0.539062H27.0431Z" fill="#00579F"/>
<path d="M12.5082 0.539062H0.126668L0 1.14042C9.6584 3.61026 16.055 9.56369 18.683 16.7194L15.9914 3.04088C15.5483 1.14 14.1865 0.601766 12.5082 0.539062Z" fill="#FAA61A"/>
</svg>
