<svg width="50" height="50" viewBox="0 0 50 50" fill="none" xmlns="http://www.w3.org/2000/svg">
<g clip-path="url(#clip0_15_33)">
<path fill-rule="evenodd" clip-rule="evenodd" d="M41.7763 42.6636C41.7763 44.1162 40.5237 44.7372 38.9803 44.7372H36.1842C34.6408 44.7372 33.3882 44.1162 33.3882 42.6636V40.032C33.3882 37.1241 30.8857 34.2109 27.7961 34.2109H22.204C19.1143 34.2109 16.6119 37.1241 16.6119 40.032V42.6636C16.6119 44.1162 15.3592 44.7372 13.8158 44.7372H11.0197C9.47633 44.7372 8.2237 44.1162 8.2237 42.6636V21.445C8.2237 21.095 8.37188 20.7608 8.63191 20.5135L22.9952 6.9977C24.0885 5.96876 25.8584 5.96876 26.9489 6.9977L41.3681 20.5661C41.6282 20.8135 41.7763 21.1478 41.7763 21.4952V42.6636ZM47.3684 20.0661C47.3684 19.3688 47.0749 18.703 46.5548 18.2083L28.9425 1.55032C26.7616 -0.510209 23.2189 -0.518055 21.0296 1.53458L3.45364 18.0215C2.92798 18.5162 2.63159 19.1846 2.63159 19.8846V45.2952C2.63159 48.2031 5.13406 50.0003 8.2237 50.0003H16.6119C19.7015 50.0003 22.204 48.2031 22.204 45.2952V42.6636C22.204 41.211 23.4566 40.032 25 40.032C26.5434 40.032 27.7961 41.211 27.7961 42.6636V45.2952C27.7961 48.2031 30.2985 50.0003 33.3882 50.0003H41.7763C44.866 50.0003 47.3684 48.2031 47.3684 45.2952V20.0661Z" fill="white"/>
</g>
<defs>
<clipPath id="clip0_15_33">
<rect width="50" height="50" fill="white"/>
</clipPath>
</defs>
</svg>
