<svg width="48" height="48" viewBox="0 0 48 48" fill="none" xmlns="http://www.w3.org/2000/svg">
<g clip-path="url(#clip0_16_43)">
<path d="M24 0C14.0098 0 5.88208 8.12769 5.88208 18.1178C5.88208 22.2475 8.78629 28.3665 14.5141 36.3048C18.6955 42.0999 22.9378 46.8211 22.9801 46.8682L23.9999 48L25.0197 46.8682C25.0621 46.8212 29.3042 42.1 33.4856 36.3048C39.2135 28.3664 42.1177 22.2475 42.1177 18.1178C42.1178 8.12769 33.9901 0 24 0ZM23.9999 43.8757C18.9127 38.0151 8.62773 24.7878 8.62773 18.1178C8.6276 9.64157 15.5236 2.74552 24 2.74552C32.4764 2.74552 39.3723 9.64157 39.3723 18.1178C39.3723 24.7838 29.087 38.0137 23.9999 43.8757Z" fill="white"/>
<path d="M24 24.94C27.7678 24.94 30.8221 21.8857 30.8221 18.118C30.8221 14.3502 27.7678 11.2959 24 11.2959C20.2323 11.2959 17.178 14.3502 17.178 18.118C17.178 21.8857 20.2323 24.94 24 24.94Z" fill="white"/>
</g>
<defs>
<clipPath id="clip0_16_43">
<rect width="48" height="48" fill="white"/>
</clipPath>
</defs>
</svg>
