<svg width="50" height="50" viewBox="0 0 50 50" fill="none" xmlns="http://www.w3.org/2000/svg">
<path d="M4.16663 23.5584C4.16674 24.1109 4.38631 24.6407 4.77704 25.0313L24.9687 45.223C25.3594 45.6136 25.8892 45.833 26.4416 45.833C26.9941 45.833 27.5239 45.6136 27.9145 45.223L45.2229 27.9167C45.6134 27.5261 45.8328 26.9963 45.8328 26.4438C45.8328 25.8914 45.6134 25.3616 45.2229 24.9709L25.0312 4.77716C24.6406 4.38644 24.1108 4.16687 23.5583 4.16675H6.24996C5.69742 4.16675 5.16752 4.38624 4.77682 4.77694C4.38612 5.16764 4.16663 5.69755 4.16663 6.25008V23.5584ZM8.33329 8.33341H22.6958L40.8041 26.4417L26.4416 40.8042L8.33329 22.6959V8.33341ZM20.6729 14.9042C21.2434 15.4747 21.6319 16.2016 21.7893 16.9928C21.9467 17.7841 21.8659 18.6043 21.5572 19.3497C21.2484 20.0951 20.7256 20.7322 20.0548 21.1804C19.384 21.6286 18.5953 21.8679 17.7885 21.8679C16.9817 21.8679 16.193 21.6286 15.5222 21.1804C14.8514 20.7322 14.3286 20.0951 14.0198 19.3497C13.7111 18.6043 13.6303 17.7841 13.7877 16.9928C13.9451 16.2016 14.3336 15.4747 14.9041 14.9042C15.2828 14.5252 15.7324 14.2245 16.2273 14.0194C16.7222 13.8142 17.2527 13.7087 17.7885 13.7087C18.3243 13.7087 18.8548 13.8142 19.3497 14.0194C19.8446 14.2245 20.2942 14.5252 20.6729 14.9042Z" fill="white"/>
</svg>
