<svg width="30" height="30" viewBox="0 0 30 30" fill="none" xmlns="http://www.w3.org/2000/svg">
  <path d="M8.75 15.625L10.625 11.875M10.625 11.875H20M10.625 11.875L13.125 20.625L20 11.875M10.625 11.875L9.375 8.75M20 11.875L21.25 15.625M20 11.875L19.375 10.625L23.125 10V11.875M11.25 19.375C11.25 21.7912 9.29125 23.75 6.875 23.75C4.45875 23.75 2.5 21.7912 2.5 19.375C2.5 16.9588 4.45875 15 6.875 15C9.29125 15 11.25 16.9588 11.25 19.375Z" stroke="#fff" stroke-width="2" stroke-linejoin="round"/>
  <path d="M23.125 23.75C25.5412 23.75 27.5 21.7912 27.5 19.375C27.5 16.9588 25.5412 15 23.125 15C20.7088 15 18.75 16.9588 18.75 19.375C18.75 21.7912 20.7088 23.75 23.125 23.75Z" stroke="#fff" stroke-width="2"/>
  <path d="M8.75 8.75H11.875" stroke="#fff" stroke-width="2" stroke-linecap="round"/>
</svg>
