<svg width="30" height="30" viewBox="0 0 30 30" fill="none" xmlns="http://www.w3.org/2000/svg">
<path d="M5 21.875L3.75 15L15 11.25L26.25 15L25 21.875M6.25 14.1666V8.75C6.25 7.36929 7.36929 6.25 8.75 6.25H21.25C22.6307 6.25 23.75 7.36929 23.75 8.75V14.1666M12.5 6.25V3.75C12.5 3.05965 13.0596 2.5 13.75 2.5H16.25C16.9404 2.5 17.5 3.05965 17.5 3.75V6.25M2.5 26.25C3.75 27.5 7.5 27.5 10 25C12.5 27.5 17.5 27.5 20 25C22.5 27.5 26.25 27.5 27.5 26.25" stroke="#4F5358" stroke-width="2.5" stroke-linecap="round" stroke-linejoin="round"/>
</svg>
