<svg width="30" height="30" viewBox="0 0 30 30" fill="none" xmlns="http://www.w3.org/2000/svg">
<path d="M9.28 4C6.3925 4 5.32 4.95391 5.32 7.52V22.04C5.32 22.6381 5.49531 23.0695 5.76 23.3875V24.68C5.76 25.407 6.35297 26 7.08 26H8.84C9.56703 26 10.16 25.407 10.16 24.68V24.24H19.84V24.68C19.84 25.407 20.433 26 21.16 26H22.92C23.647 26 24.24 25.407 24.24 24.68V23.3875C24.5047 23.0695 24.68 22.6381 24.68 22.04V7.96C24.68 6.04359 24.4428 4 21.6 4H9.28ZM10.6 5.76H19.84C20.0841 5.76 20.28 5.95766 20.28 6.2V7.08C20.28 7.32234 20.0841 7.52 19.84 7.52H10.6C10.3577 7.52 10.16 7.32234 10.16 7.08V6.2C10.16 5.95766 10.3577 5.76 10.6 5.76ZM8.84 8.84H21.16C22.04 8.84 22.48 9.28 22.48 10.16V15.44C22.48 16.32 21.6206 16.7325 21.16 16.7325L8.84 16.76C7.96 16.76 7.52 16.32 7.52 15.44V10.16C7.52 9.28 7.96 8.84 8.84 8.84ZM4.88 9.28C4.39531 9.28 4 9.67531 4 10.16V13.68C4 14.1647 4.39531 14.56 4.88 14.56V9.28ZM25.12 9.28V14.56C25.6064 14.56 26 14.1647 26 13.68V10.16C26 9.67531 25.6064 9.28 25.12 9.28ZM9.06 18.96C9.91078 18.96 10.6 19.6492 10.6 20.5C10.6 21.3508 9.91078 22.04 9.06 22.04C8.20922 22.04 7.52 21.3508 7.52 20.5C7.52 19.6492 8.20922 18.96 9.06 18.96ZM20.94 18.96C21.7908 18.96 22.48 19.6492 22.48 20.5C22.48 21.3508 21.7908 22.04 20.94 22.04C20.0892 22.04 19.4 21.3508 19.4 20.5C19.4 19.6492 20.0892 18.96 20.94 18.96Z" fill="#4F5358"/>
</svg>
