<svg width="30" height="30" viewBox="0 0 30 30" fill="none" xmlns="http://www.w3.org/2000/svg">
<path d="M14.3806 6.90625C15.4548 6.90625 16.3337 6.02734 16.3337 4.95312C16.3337 3.87891 15.4548 3 14.3806 3C13.3064 3 12.4275 3.87891 12.4275 4.95312C12.4275 6.02734 13.3064 6.90625 14.3806 6.90625Z" fill="#4F5358"/>
<path d="M9.73214 12.8632L11.0993 7.21871C11.1774 6.92574 10.9821 6.61324 10.6892 6.53511L9.06807 6.14449C8.75557 6.06636 8.46261 6.26168 8.38448 6.55465L7.01729 12.1992C6.93917 12.4921 7.13448 12.8046 7.42745 12.8828L9.04854 13.2734C9.34151 13.3515 9.65401 13.1757 9.73214 12.8632Z" fill="#4F5358"/>
<path d="M22.2908 9.17188C22.0759 9.17188 21.9001 9.34766 21.8416 9.5625L18.5798 27.3164C18.5798 27.3359 18.5798 27.3359 18.5798 27.3555C18.5798 27.6094 18.7751 27.8047 19.0291 27.8047C19.2634 27.8047 19.4392 27.6289 19.4783 27.4141L22.74 9.67969V9.64062C22.74 9.38672 22.5447 9.17188 22.2908 9.17188Z" fill="#4F5358"/>
<path d="M14.5564 13.2539L14.8103 12.121L15.0056 13.0195C15.1814 13.6054 15.7283 13.664 15.7283 13.664L18.8923 14.4648C18.9509 14.4843 19.0095 14.4843 19.0876 14.4843C19.615 14.4843 20.0251 14.0742 20.0251 13.5468C20.0251 13.0976 19.7126 12.7265 19.3025 12.6289L16.5486 11.9453L15.8064 8.85932C15.4548 7.14057 13.8142 7.17963 13.8142 7.17963C12.2322 7.14057 11.822 8.80073 11.822 8.80073L7.70093 26.1249C7.6814 26.2226 7.6814 26.3007 7.6814 26.3984C7.6814 27.1601 8.28687 27.7656 9.04858 27.7656C9.67358 27.7656 10.2009 27.3554 10.3572 26.789L12.7205 17.0624L14.9666 26.7499C15.1033 27.3554 15.6501 27.7851 16.2947 27.7851C17.0564 27.7851 17.6619 27.1796 17.6619 26.4179C17.6619 26.3203 17.6423 26.2226 17.6228 26.1249L14.5564 13.2539Z" fill="#4F5358"/>
</svg>
