<svg width="30" height="30" viewBox="0 0 30 30" fill="none" xmlns="http://www.w3.org/2000/svg">
  <g clip-path="url(#clip0_18_389)">
    <path d="M1.875 19.6875H26.9063C27.9375 19.6875 28.875 19.2188 29.4375 18.375C30 17.5312 30.1875 16.5938 29.8125 15.6563C28.5 11.9063 24.9375 9.375 20.8125 9.375H1.875C1.3125 9.375 0.9375 9.75 0.9375 10.3125V18.75C0.9375 19.3125 1.3125 19.6875 1.875 19.6875ZM14.0625 14.0625V11.25H17.8125V14.0625H14.0625ZM12.1875 14.0625H8.4375V11.25H12.1875V14.0625ZM26.8125 14.0625H19.6875V11.25H20.9062C23.25 11.25 25.4063 12.2812 26.8125 14.0625ZM6.5625 11.25V14.0625H2.8125V11.25H6.5625Z" fill="#fff"/>
    <path d="M29.0625 21.5625H0.9375C0.375 21.5625 0 21.9375 0 22.5C0 23.0625 0.375 23.4375 0.9375 23.4375H29.0625C29.625 23.4375 30 23.0625 30 22.5C30 21.9375 29.625 21.5625 29.0625 21.5625Z" fill="#fff"/>
  </g>
  <defs>
    <clipPath id="clip0_18_389">
      <rect width="30" height="30" fill="white"/>
    </clipPath>
  </defs>
</svg>
