<svg width="30" height="30" viewBox="0 0 30 30" fill="none" xmlns="http://www.w3.org/2000/svg">
<path d="M5.125 22.375C5.625 23.875 7 25 8.75 25C10.375 25 11.75 24 12.25 22.5H17.75C18.25 24 19.625 25 21.25 25C23 25 24.375 23.875 24.875 22.375C26.375 21.875 27.5 20.5 27.5 18.75V13.75C27.5 11.375 25.875 9.375 23.625 8.875C23.75 8.625 23.75 8.375 23.75 8.125C23.75 6.375 22.375 5 20.625 5H11.875C10.125 5 8.75 6.375 8.75 8.125C8.75 8.375 8.75 8.5 8.875 8.75H8.625C6.75 8.75 5.125 9.75 4.25 11.375L3 13.875C2.875 14.125 2.875 14.25 2.75 14.5C2.625 14.875 2.5 15.25 2.5 15.625V18.75C2.5 20.5 3.625 21.875 5.125 22.375ZM8.75 22.5C8 22.5 7.5 22 7.5 21.25C7.5 20.5 8 20 8.75 20C9.5 20 10 20.5 10 21.25C10 22 9.5 22.5 8.75 22.5ZM21.25 22.5C20.5 22.5 20 22 20 21.25C20 20.5 20.5 20 21.25 20C22 20 22.5 20.5 22.5 21.25C22.5 22 22 22.5 21.25 22.5ZM25 13.75H12.5V11.25H20.625H22.5C23.875 11.25 25 12.375 25 13.75ZM11.875 7.5H20.625C21 7.5 21.25 7.75 21.25 8.125C21.25 8.5 21 8.75 20.625 8.75H11.875C11.5 8.75 11.25 8.5 11.25 8.125C11.25 7.75 11.5 7.5 11.875 7.5ZM6.5 12.625C6.875 11.75 7.75 11.25 8.625 11.25H10V13.75H5.875L6.5 12.625ZM5 16.25H25V18.75C25 19.125 24.875 19.375 24.625 19.625C24.5 19.5 24.5 19.25 24.375 19.125C24.25 19 24.125 18.875 24 18.625L23.875 18.5C23.75 18.375 23.625 18.25 23.5 18.125C23.5 18.125 23.375 18.125 23.375 18C23.25 17.875 23 17.75 22.75 17.75H22.625C22.5 17.75 22.25 17.625 22.125 17.625H22C21.75 17.5 21.5 17.5 21.25 17.5C21 17.5 20.75 17.5 20.5 17.625C20.375 17.625 20.375 17.625 20.25 17.625C20.125 17.625 20 17.75 19.75 17.75C19.625 17.75 19.625 17.75 19.5 17.875C19.375 18 19.25 18 19.125 18.125C19.125 18.125 19 18.125 19 18.25C18.875 18.375 18.625 18.5 18.5 18.625C18.5 18.625 18.5 18.625 18.375 18.75C18.25 18.875 18.125 19 18 19.125L17.875 19.25C17.75 19.375 17.75 19.5 17.625 19.625C17.625 19.75 17.625 19.75 17.5 19.875V20H12.25V19.875C12.25 19.75 12.25 19.75 12.125 19.625C12 19.5 12 19.375 11.875 19.25L11.75 19.125C11.625 19 11.5 18.875 11.375 18.75C11.375 18.75 11.375 18.75 11.25 18.625C11.125 18.5 10.875 18.375 10.75 18.25L10.625 18.125C10.5 18 10.375 18 10.25 17.875C10.125 17.875 10.125 17.875 10 17.75C9.875 17.75 9.75 17.625 9.5 17.625C9.375 17.625 9.375 17.625 9.25 17.625C9.25 17.5 9 17.5 8.75 17.5C8.5 17.5 8.25 17.5 8.125 17.625C8 17.625 8 17.625 8 17.625C7.875 17.625 7.625 17.75 7.5 17.75H7.375C7.125 17.875 7 18 6.75 18C6.75 18 6.625 18 6.625 18.125C6.5 18.25 6.375 18.375 6.25 18.5L6.125 18.625C6 18.75 5.875 18.875 5.75 19.125C5.625 19.25 5.5 19.375 5.5 19.625C5.125 19.375 5 19.125 5 18.75V16.25Z" fill="#fff"/>
</svg>
